<?xml version="1.0" encoding="UTF-8" standalone="no"?>
<!DOCTYPE svg PUBLIC "-//W3C//DTD SVG 20010904//EN"
              "http://www.w3.org/TR/2001/REC-SVG-20010904/DTD/svg10.dtd">

<svg xmlns="http://www.w3.org/2000/svg"
	width="2em" height="2em"
	viewBox="0 0 800 800"
>
	<path id="Selection"
		fill="#e1ac1f" stroke="black" stroke-width="1"
		d="M 398.00,24.46
           C 407.24,23.65 411.68,28.00 419.00,32.63
             419.00,32.63 441.00,45.99 441.00,45.99
             469.35,62.64 499.54,75.62 530.00,87.80
             579.67,107.65 628.28,118.92 681.00,126.57
             694.96,128.60 719.36,127.10 724.89,143.00
             726.12,146.53 725.99,149.36 726.00,153.00
             726.00,153.00 726.00,345.00 726.00,345.00
             726.00,345.00 726.00,436.00 726.00,436.00
             726.00,436.00 723.94,453.00 723.94,453.00
             723.94,453.00 723.94,461.00 723.94,461.00
             717.35,509.92 695.77,558.26 665.58,597.00
             626.86,646.67 569.48,682.51 516.00,714.60
             516.00,714.60 438.00,759.00 438.00,759.00
             429.42,763.64 406.49,776.29 398.00,777.56
             390.27,778.71 385.38,775.35 379.00,771.72
             379.00,771.72 357.00,759.42 357.00,759.42
             357.00,759.42 261.00,702.69 261.00,702.69
             205.46,666.93 155.69,633.86 117.75,578.00
             93.71,542.60 77.57,498.43 72.29,456.00
             72.29,456.00 70.00,411.00 70.00,411.00
             70.00,411.00 69.00,394.00 69.00,394.00
             69.00,394.00 69.00,346.00 69.00,346.00
             69.00,346.00 69.00,153.00 69.00,153.00
             69.01,145.69 69.74,139.34 76.04,134.50
             81.12,130.59 92.58,129.52 99.00,128.84
             99.00,128.84 141.00,123.59 141.00,123.59
             205.82,112.71 258.79,93.64 318.00,65.70
             318.00,65.70 367.00,40.00 367.00,40.00
             374.85,35.49 389.77,26.12 398.00,24.46 Z
           M 302.00,348.00
           C 302.00,348.00 289.28,326.00 289.28,326.00
             289.28,326.00 252.86,264.00 252.86,264.00
             252.86,264.00 243.85,248.00 243.85,248.00
             243.85,248.00 238.39,239.99 238.39,239.99
             238.39,239.99 231.00,239.00 231.00,239.00
             231.00,239.00 161.00,239.00 161.00,239.00
             161.00,239.00 162.00,270.00 162.00,270.00
             162.00,270.00 162.00,326.00 162.00,326.00
             162.00,326.00 162.00,508.00 162.00,508.00
             162.00,508.00 228.00,508.00 228.00,508.00
             228.00,508.00 228.00,399.00 228.00,399.00
             228.00,399.00 228.00,366.00 228.00,366.00
             228.00,366.00 229.00,347.00 229.00,347.00
             229.00,347.00 248.80,381.00 248.80,381.00
             248.80,381.00 285.40,441.00 285.40,441.00
             285.40,441.00 301.00,467.00 301.00,467.00
             301.00,467.00 303.00,467.00 303.00,467.00
             303.00,467.00 375.00,349.00 375.00,349.00
             375.00,349.00 375.00,508.00 375.00,508.00
             375.00,508.00 441.00,508.00 441.00,508.00
             441.00,508.00 441.00,239.00 441.00,239.00
             441.00,239.00 376.00,239.00 376.00,239.00
             376.00,239.00 368.53,239.99 368.53,239.99
             368.53,239.99 362.99,248.00 362.99,248.00
             362.99,248.00 353.40,264.00 353.40,264.00
             353.40,264.00 321.20,318.00 321.20,318.00
             321.20,318.00 304.00,348.00 304.00,348.00
             304.00,348.00 302.00,348.00 302.00,348.00 Z
           M 615.00,239.00
           C 615.00,239.00 549.00,239.00 549.00,239.00
             549.00,239.00 549.00,372.00 549.00,372.00
             549.00,372.00 484.00,372.00 484.00,372.00
             484.00,372.00 513.13,413.00 513.13,413.00
             513.13,413.00 581.00,505.00 581.00,505.00
             581.00,505.00 583.00,505.00 583.00,505.00
             583.00,505.00 611.12,467.00 611.12,467.00
             611.12,467.00 651.88,412.00 651.88,412.00
             651.88,412.00 681.00,372.00 681.00,372.00
             681.00,372.00 615.00,372.00 615.00,372.00
             615.00,372.00 615.00,239.00 615.00,239.00 Z"
	/>
	<path id="Selection #1"
        fill="#975804" stroke="black" stroke-width="1"
        d="M 614.00,238.00
           C 614.00,238.00 615.00,247.00 615.00,247.00
             615.00,247.00 615.00,278.00 615.00,278.00
             615.00,278.00 615.00,372.00 615.00,372.00
             615.00,372.00 681.00,372.00 681.00,372.00
             681.00,372.00 649.88,415.00 649.88,415.00
             649.88,415.00 583.00,505.00 583.00,505.00
             583.00,505.00 581.00,505.00 581.00,505.00
             581.00,505.00 514.53,415.00 514.53,415.00
             514.53,415.00 483.00,372.00 483.00,372.00
             483.00,372.00 540.00,372.00 540.00,372.00
             540.00,372.00 548.96,371.82 548.96,371.82
             548.96,371.82 548.74,363.09 548.74,363.09
             548.74,363.09 548.62,345.09 548.62,345.09
             548.62,345.09 548.62,337.58 548.62,337.58
             548.62,337.58 548.62,332.61 548.62,332.61
             548.62,332.61 548.62,328.58 548.62,328.58
             548.62,328.58 548.62,321.83 548.62,321.83
             548.62,321.83 548.62,286.70 548.62,286.70
             548.62,286.70 548.62,269.00 548.62,269.00
             548.62,269.00 548.62,258.00 548.62,258.00
             548.62,258.00 548.62,249.58 548.62,249.58
             548.62,249.58 550.00,239.00 550.00,239.00
             550.00,239.00 591.00,239.00 591.00,239.00
             591.00,239.00 614.00,238.00 614.00,238.00 Z
           M 161.00,239.00
           C 161.00,239.00 163.00,243.00 163.00,243.00
             165.57,236.42 176.45,239.90 182.00,239.63
             182.00,239.63 221.42,239.09 221.42,239.09
             221.42,239.09 239.00,239.09 239.00,239.09
             239.00,239.09 281.20,312.00 281.20,312.00
             281.20,312.00 302.00,348.00 302.00,348.00
             302.00,348.00 304.00,348.00 304.00,348.00
             305.76,342.42 310.87,332.88 316.00,330.00
             316.04,324.42 320.00,319.66 322.80,315.00
             322.80,315.00 340.60,285.00 340.60,285.00
             343.09,280.85 346.13,273.12 351.00,272.00
             350.77,266.40 353.41,263.65 356.20,259.00
             356.20,259.00 368.00,239.13 368.00,239.13
             368.00,239.13 382.00,239.13 382.00,239.13
             382.00,239.13 419.00,239.13 419.00,239.13
             423.26,239.53 437.51,238.33 440.13,241.47
             441.67,243.31 441.41,245.78 441.48,248.00
             441.48,248.00 441.48,302.72 441.48,302.72
             441.48,302.72 441.48,312.00 441.48,312.00
             441.48,312.00 441.48,328.09 441.48,328.09
             441.48,328.09 441.48,347.00 441.48,347.00
             441.48,347.00 441.48,360.01 441.48,360.01
             441.48,360.01 441.48,373.00 441.48,373.00
             441.48,373.00 441.48,409.00 441.48,409.00
             441.48,409.00 441.48,427.00 441.48,427.00
             441.48,427.00 441.48,441.72 441.48,441.72
             441.48,441.72 441.48,452.00 441.48,452.00
             441.48,452.00 441.01,507.96 441.01,507.96
             441.01,507.96 375.00,508.00 375.00,508.00
             375.00,508.00 375.00,474.00 375.00,474.00
             375.00,474.00 375.00,405.00 375.00,405.00
             375.00,405.00 375.00,370.00 375.00,370.00
             375.00,370.00 374.00,350.00 374.00,350.00
             374.00,350.00 354.42,383.00 354.42,383.00
             354.42,383.00 322.28,436.00 322.28,436.00
             322.28,436.00 309.40,457.00 309.40,457.00
             307.39,460.33 305.97,464.03 302.00,465.00
             302.00,465.00 302.00,468.00 302.00,468.00
             302.00,468.00 272.95,421.00 272.95,421.00
             269.51,415.49 261.19,403.99 261.00,398.00
             255.64,395.00 252.39,387.22 249.19,382.00
             249.19,382.00 228.00,348.00 228.00,348.00
             228.00,348.00 228.00,508.00 228.00,508.00
             228.00,508.00 170.00,508.00 170.00,508.00
             168.01,508.00 164.19,508.23 162.60,506.98
             160.41,505.24 161.00,494.04 161.00,491.00
             161.00,491.00 161.00,239.00 161.00,239.00 Z
           M 369.00,240.00
           C 369.00,240.00 368.00,240.00 368.00,240.00
             368.00,240.00 369.00,241.00 369.00,241.00
             369.00,241.00 369.00,240.00 369.00,240.00 Z
           M 441.00,239.00
           C 441.00,239.00 442.00,239.00 442.00,239.00
             442.00,239.00 441.00,240.00 441.00,240.00
             441.00,240.00 441.00,239.00 441.00,239.00 Z
           M 548.00,239.00
           C 548.00,239.00 549.00,239.00 549.00,239.00
             549.00,239.00 548.00,240.00 548.00,240.00
             548.00,240.00 548.00,239.00 548.00,239.00 Z
           M 368.00,242.00
           C 368.00,242.00 367.00,242.00 367.00,242.00
             367.00,242.00 368.00,243.00 368.00,243.00
             368.00,243.00 368.00,242.00 368.00,242.00 Z
           M 366.00,245.00
           C 366.00,245.00 365.00,245.00 365.00,245.00
             365.00,245.00 366.00,246.00 366.00,246.00
             366.00,246.00 366.00,245.00 366.00,245.00 Z
           M 359.00,257.00
           C 359.00,257.00 358.00,257.00 358.00,257.00
             358.00,257.00 359.00,258.00 359.00,258.00
             359.00,258.00 359.00,257.00 359.00,257.00 Z
           M 358.00,259.00
           C 358.00,259.00 357.00,259.00 357.00,259.00
             357.00,259.00 358.00,260.00 358.00,260.00
             358.00,260.00 358.00,259.00 358.00,259.00 Z
           M 550.00,271.00
           C 550.00,271.00 549.00,271.00 549.00,271.00
             549.00,271.00 550.00,272.00 550.00,272.00
             550.00,272.00 550.00,271.00 550.00,271.00 Z
           M 350.00,272.00
           C 350.00,272.00 349.00,272.00 349.00,272.00
             349.00,272.00 350.00,273.00 350.00,273.00
             350.00,273.00 350.00,272.00 350.00,272.00 Z
           M 550.00,275.00
           C 550.00,275.00 549.00,275.00 549.00,275.00
             549.00,275.00 550.00,276.00 550.00,276.00
             550.00,276.00 550.00,275.00 550.00,275.00 Z
           M 263.00,282.00
           C 263.00,282.00 262.00,282.00 262.00,282.00
             262.00,282.00 263.00,283.00 263.00,283.00
             263.00,283.00 263.00,282.00 263.00,282.00 Z
           M 344.00,282.00
           C 344.00,282.00 343.00,282.00 343.00,282.00
             343.00,282.00 344.00,283.00 344.00,283.00
             344.00,283.00 344.00,282.00 344.00,282.00 Z
           M 343.00,284.00
           C 343.00,284.00 342.00,284.00 342.00,284.00
             342.00,284.00 343.00,285.00 343.00,285.00
             343.00,285.00 343.00,284.00 343.00,284.00 Z
           M 550.00,284.00
           C 550.00,284.00 549.00,284.00 549.00,284.00
             549.00,284.00 550.00,285.00 550.00,285.00
             550.00,285.00 550.00,284.00 550.00,284.00 Z
           M 340.00,289.00
           C 340.00,289.00 339.00,289.00 339.00,289.00
             339.00,289.00 340.00,290.00 340.00,290.00
             340.00,290.00 340.00,289.00 340.00,289.00 Z
           M 550.00,292.00
           C 550.00,292.00 549.00,292.00 549.00,292.00
             549.00,292.00 550.00,293.00 550.00,293.00
             550.00,293.00 550.00,292.00 550.00,292.00 Z
           M 337.00,294.00
           C 337.00,294.00 336.00,294.00 336.00,294.00
             336.00,294.00 337.00,295.00 337.00,295.00
             337.00,295.00 337.00,294.00 337.00,294.00 Z
           M 335.00,297.00
           C 335.00,297.00 334.00,297.00 334.00,297.00
             334.00,297.00 335.00,298.00 335.00,298.00
             335.00,298.00 335.00,297.00 335.00,297.00 Z
           M 550.00,298.00
           C 550.00,298.00 549.00,298.00 549.00,298.00
             549.00,298.00 550.00,299.00 550.00,299.00
             550.00,299.00 550.00,298.00 550.00,298.00 Z
           M 334.00,299.00
           C 334.00,299.00 333.00,299.00 333.00,299.00
             333.00,299.00 334.00,300.00 334.00,300.00
             334.00,300.00 334.00,299.00 334.00,299.00 Z
           M 328.00,309.00
           C 328.00,309.00 327.00,309.00 327.00,309.00
             327.00,309.00 328.00,310.00 328.00,310.00
             328.00,310.00 328.00,309.00 328.00,309.00 Z
           M 325.00,314.00
           C 325.00,314.00 324.00,314.00 324.00,314.00
             324.00,314.00 325.00,315.00 325.00,315.00
             325.00,315.00 325.00,314.00 325.00,314.00 Z
           M 318.00,326.00
           C 318.00,326.00 317.00,326.00 317.00,326.00
             317.00,326.00 318.00,327.00 318.00,327.00
             318.00,327.00 318.00,326.00 318.00,326.00 Z
           M 313.00,334.00
           C 313.00,334.00 312.00,334.00 312.00,334.00
             312.00,334.00 313.00,335.00 313.00,335.00
             313.00,335.00 313.00,334.00 313.00,334.00 Z
           M 310.00,339.00
           C 310.00,339.00 309.00,339.00 309.00,339.00
             309.00,339.00 310.00,340.00 310.00,340.00
             310.00,340.00 310.00,339.00 310.00,339.00 Z
           M 550.00,340.00
           C 550.00,340.00 549.00,340.00 549.00,340.00
             549.00,340.00 550.00,341.00 550.00,341.00
             550.00,341.00 550.00,340.00 550.00,340.00 Z
           M 307.00,344.00
           C 307.00,344.00 306.00,344.00 306.00,344.00
             306.00,344.00 307.00,345.00 307.00,345.00
             307.00,345.00 307.00,344.00 307.00,344.00 Z
           M 550.00,346.00
           C 550.00,346.00 549.00,346.00 549.00,346.00
             549.00,346.00 550.00,347.00 550.00,347.00
             550.00,347.00 550.00,346.00 550.00,346.00 Z
           M 548.00,362.00
           C 548.00,362.00 548.79,362.05 548.79,362.05
             548.79,362.05 548.00,363.00 548.00,363.00
             548.00,363.00 548.00,362.00 548.00,362.00 Z
           M 679.00,373.00
           C 679.00,373.00 678.00,373.00 678.00,373.00
             678.00,373.00 679.00,374.00 679.00,374.00
             679.00,374.00 679.00,373.00 679.00,373.00 Z
           M 163.00,506.00
           C 163.00,506.00 162.00,506.00 162.00,506.00
             162.00,506.00 163.00,507.00 163.00,507.00
             163.00,507.00 163.00,506.00 163.00,506.00 Z
           M 441.00,506.00
           C 441.00,506.00 440.98,506.43 440.98,506.43
             440.98,506.43 441.00,507.00 441.00,507.00
             441.00,507.00 441.00,506.00 441.00,506.00 Z"
	/>
</svg>
